# xmcd CD database file
#
# Track frame offsets:
#	150
#	16138
#	35367
#	54982
#	72476
#	89553
#	104758
#	124045
#	145658
#	162264
#	181491
#	199478
#
# Disc length: 3019 seconds
#
# Revision: 0
# Processed by: cddbd v1.5.2PL0 Copyright (c) Steve Scherf et al.
# Submitted via: CDex 1.51
#
DISCID=ab0bc90c
DTITLE=Jazzamor - Beautiful Day
DYEAR=2007
DGENRE=Jazz
TTITLE0=Beautiful Day
TTITLE1=Pouring Rain
TTITLE2=Time Is Running
TTITLE3=Ambivalent Love Song
TTITLE4=Here And Now
TTITLE5=Love Track
TTITLE6=Amazing
TTITLE7=House On A Hill
TTITLE8=Winterrose
TTITLE9=Transmission To Mars
TTITLE10=Forget Yesterday
TTITLE11=Dreamer
EXTD=YEAR: 2007
EXTT0=
EXTT1=
EXTT2=
EXTT3=
EXTT4=
EXTT5=
EXTT6=
EXTT7=
EXTT8=
EXTT9=
EXTT10=
EXTT11=
PLAYORDER=
